<svg width="20" height="21" viewBox="0 0 20 21" fill="none" xmlns="http://www.w3.org/2000/svg">
<path d="M9.99984 2.16666C5.39984 2.16666 1.6665 5.89999 1.6665 10.5C1.6665 15.1 5.39984 18.8333 9.99984 18.8333C14.5998 18.8333 18.3332 15.1 18.3332 10.5C18.3332 5.89999 14.5998 2.16666 9.99984 2.16666ZM14.8748 12.25C14.8415 12.325 14.7998 12.3917 14.7415 12.45L12.2082 14.9833C12.0832 15.1083 11.9248 15.1667 11.7665 15.1667C11.6082 15.1667 11.4498 15.1083 11.3248 14.9833C11.0832 14.7417 11.0832 14.3417 11.3248 14.1L12.7915 12.6333H5.70817C5.3665 12.6333 5.08317 12.35 5.08317 12.0083C5.08317 11.6667 5.3665 11.3833 5.70817 11.3833H14.2998C14.3832 11.3833 14.4582 11.4 14.5415 11.4333C14.6915 11.5 14.8165 11.6167 14.8832 11.775C14.9332 11.925 14.9332 12.1 14.8748 12.25ZM14.2915 9.60832H5.70817C5.62484 9.60832 5.5415 9.59166 5.4665 9.55832C5.3165 9.49166 5.1915 9.37499 5.12484 9.21666C5.05817 9.06666 5.05817 8.89166 5.12484 8.74166C5.15817 8.66666 5.19984 8.59999 5.25817 8.54166L7.7915 6.00832C8.03317 5.76666 8.43317 5.76666 8.67484 6.00832C8.9165 6.24999 8.9165 6.64999 8.67484 6.89166L7.2165 8.35832H14.2998C14.6415 8.35832 14.9248 8.64166 14.9248 8.98332C14.9248 9.32499 14.6415 9.60832 14.2915 9.60832Z" fill="#19446A"/>
</svg>
