<svg width="20" height="21" viewBox="0 0 20 21" fill="none" xmlns="http://www.w3.org/2000/svg">
<path d="M11.7582 15.175C11.5998 15.175 11.4415 15.1167 11.3165 14.9917C11.0748 14.7501 11.0748 14.35 11.3165 14.1084L13.8498 11.575C14.0915 11.3334 14.4915 11.3334 14.7332 11.575C14.9748 11.8167 14.9748 12.2167 14.7332 12.4584L12.1999 14.9917C12.0832 15.1084 11.9248 15.175 11.7582 15.175Z" fill="#484C52"/>
<path d="M14.2915 12.6417H5.69983C5.35816 12.6417 5.07483 12.3584 5.07483 12.0167C5.07483 11.6751 5.35816 11.3917 5.69983 11.3917H14.2915C14.6332 11.3917 14.9165 11.6751 14.9165 12.0167C14.9165 12.3584 14.6415 12.6417 14.2915 12.6417Z" fill="#484C52"/>
<path d="M5.70836 9.60828C5.55003 9.60828 5.3917 9.54995 5.2667 9.42495C5.02503 9.18328 5.02503 8.78328 5.2667 8.54162L7.80001 6.00828C8.04168 5.76661 8.4417 5.76661 8.68337 6.00828C8.92504 6.24994 8.92504 6.64997 8.68337 6.89163L6.15003 9.42495C6.02503 9.54995 5.8667 9.60828 5.70836 9.60828Z" fill="#484C52"/>
<path d="M14.2915 9.60828H5.69983C5.35816 9.60828 5.07483 9.32494 5.07483 8.98328C5.07483 8.64161 5.35816 8.35828 5.69983 8.35828H14.2915C14.6332 8.35828 14.9165 8.64161 14.9165 8.98328C14.9165 9.32494 14.6415 9.60828 14.2915 9.60828Z" fill="#484C52"/>
<path d="M9.99996 19.4583C5.05829 19.4583 1.04163 15.4416 1.04163 10.5C1.04163 5.55829 5.05829 1.54163 9.99996 1.54163C14.9416 1.54163 18.9583 5.55829 18.9583 10.5C18.9583 15.4416 14.9416 19.4583 9.99996 19.4583ZM9.99996 2.79163C5.74996 2.79163 2.29163 6.24996 2.29163 10.5C2.29163 14.75 5.74996 18.2083 9.99996 18.2083C14.25 18.2083 17.7083 14.75 17.7083 10.5C17.7083 6.24996 14.25 2.79163 9.99996 2.79163Z" fill="#484C52"/>
</svg>
