<svg width="46" height="45" viewBox="0 0 46 45" fill="none" xmlns="http://www.w3.org/2000/svg">
<path d="M42.5261 22.4692C42.5261 33.4992 33.5898 42.4385 22.5694 42.4385C11.5489 42.4385 2.61267 33.4992 2.61267 22.4692C2.61267 11.4392 11.5489 2.5 22.5694 2.5C33.5898 2.5 42.5261 11.4392 42.5261 22.4692Z" fill="#F5F5F5" stroke="white" stroke-width="5"/>
<g clip-path="url(#clip0_536_928)">
<path d="M17.1153 26.377L27.0177 16.4691L25.6371 15.0877L15.7347 24.9957V26.377H17.1153ZM17.9247 28.3309H13.782V24.1858L24.9468 13.0147C25.1299 12.8315 25.3782 12.7286 25.6371 12.7286C25.896 12.7286 26.1443 12.8315 26.3274 13.0147L29.0896 15.7784C29.2727 15.9616 29.3755 16.21 29.3755 16.4691C29.3755 16.7281 29.2727 16.9766 29.0896 17.1598L17.9247 28.3309ZM13.782 30.2847H31.3568V32.2386H13.782V30.2847Z" fill="black"/>
</g>
<defs>
<clipPath id="clip0_536_928">
<rect width="23.4331" height="23.4462" fill="white" transform="translate(10.8528 10.7462)"/>
</clipPath>
</defs>
</svg>
