<svg width="271" height="270" viewBox="0 0 271 270" fill="none" xmlns="http://www.w3.org/2000/svg">
<g clip-path="url(#clip0_1_2385)">
<path fill-rule="evenodd" clip-rule="evenodd" d="M98.0508 73.2164C101.198 73.2164 104.197 73.9394 106.868 75.2153C107.217 80.3615 108.913 85.1462 111.615 89.1972C103.159 95.2791 97.3302 104.253 95.2001 114.301C85.1858 112.908 77.4816 104.274 77.4816 93.8543C77.4816 82.4668 86.6906 73.2164 98.0508 73.2164ZM172.952 73.2164C184.312 73.2164 193.521 82.4668 193.521 93.8543C193.521 104.274 185.817 112.908 175.803 114.301C173.673 104.253 167.844 95.2685 159.387 89.1972C162.09 85.1462 163.785 80.3615 164.135 75.2153C166.806 73.9394 169.805 73.2164 172.952 73.2164ZM205.888 140.564H209.82C212.395 140.564 214.546 138.394 214.546 135.811V84.5508C214.557 83.6789 215.033 82.8495 215.849 82.4349C220.152 80.1489 224.211 78.0542 228.375 75.5237C229.17 75.0027 230.124 74.6943 231.141 74.6943C233.907 74.6943 236.164 76.9378 236.164 79.7235V157.214C236.164 160 233.907 162.254 231.141 162.254H176.703V122.807C182.362 122.073 187.523 119.713 191.677 116.194C199.572 121.68 204.998 130.484 205.888 140.564ZM94.2994 162.254H39.8615C37.0956 162.254 34.8384 160 34.8384 157.214V79.7235C34.8384 76.9378 37.0956 74.6943 39.8615 74.6943C40.8788 74.6943 41.8325 75.0027 42.6273 75.5237C46.792 78.0542 50.8508 80.1489 55.1532 82.4349C55.9692 82.8495 56.4461 83.6789 56.4567 84.5508V135.811C56.4567 138.394 58.6079 140.564 61.1831 140.564H65.1146C66.0048 130.484 71.4306 121.68 79.3255 116.194C83.4796 119.713 88.6405 122.073 94.2994 122.807V162.254Z" fill="#06456B"/>
<path fill-rule="evenodd" clip-rule="evenodd" d="M153.951 162.254V184.668H203.472C206.291 184.668 208.59 186.986 208.59 189.803C208.59 192.621 206.291 194.928 203.472 194.928H67.5308C64.7119 194.928 62.4123 192.621 62.4123 189.803C62.4123 186.986 64.7119 184.668 67.5308 184.668H117.052V162.254H102.438V122.86C102.438 111.568 108.129 101.563 116.776 95.5556C120.241 98.4902 124.385 100.606 128.931 101.669L132.619 107.953L127.002 140.17L135.586 148.783L144 140.33L138.363 107.953L142.04 101.669C146.607 100.606 150.761 98.4902 154.227 95.5556C162.874 101.563 168.565 111.568 168.565 122.86V162.254H153.951ZM114 29.5268H157.003V16.672H114V29.5268ZM97.3832 29.5268V5.03987C97.3832 2.25412 99.6298 0 102.406 0H168.596C171.362 0 173.609 2.25412 173.609 5.03987V29.5268H231.141C233.918 29.5268 236.164 31.7916 236.164 34.5667V55.7788C236.143 57.3525 235.412 58.8942 234.045 59.8724C222.875 67.8469 210.837 74.386 198.237 79.3939C193.224 70.5901 183.772 64.6571 172.952 64.6571C169.815 64.6571 166.7 65.1675 163.743 66.1563C160.596 53.4503 149.129 44.0191 135.501 44.0191C121.873 44.0191 110.407 53.4503 107.26 66.1563C104.303 65.1675 101.188 64.6571 98.0508 64.6571C87.231 64.6571 77.7783 70.5901 72.7658 79.3939C60.2823 74.4285 48.3604 67.9639 37.2863 60.1063C35.8133 59.2238 34.8384 57.6183 34.8384 55.7788V34.5667C34.8384 31.7916 37.085 29.5268 39.8615 29.5268H97.3832ZM135.501 52.5784C146.84 52.5784 156.071 61.8288 156.071 73.2164C156.071 84.6039 146.84 93.8543 135.501 93.8543C124.162 93.8543 114.932 84.6146 114.932 73.2164C114.932 61.8182 124.162 52.5784 135.501 52.5784Z" fill="#0EA4FF"/>
<path d="M0 268.767V212.408H13.4664L30.3955 241.59L47.3245 212.408H60.7909V268.767H47.4782V235.26L33.8581 258.806H26.9328L13.3128 235.26V268.767H0Z" fill="#06456B"/>
<path d="M84.3326 212.408H98.6442L117.343 268.767H102.724L99.7993 258.884H83.257L80.3322 268.767H65.6365L84.3353 212.408H84.3326ZM96.1803 246.531L91.4857 230.627L86.868 246.531H96.1777H96.1803Z" fill="#06456B"/>
<path d="M118.495 212.408H161.894V225.223H146.891V268.764H133.578V225.223H118.495V212.408Z" fill="#06456B"/>
<path d="M174.512 219.896C180.206 214.184 187.104 211.326 195.211 211.326C199.776 211.326 204.06 212.318 208.06 214.298C212.061 216.281 215.42 218.995 218.141 222.443L207.062 230.627C203.933 226.871 199.983 224.992 195.211 224.992C190.954 224.992 187.287 226.523 184.209 229.585C181.13 232.648 179.591 236.316 179.591 240.587C179.591 244.859 181.117 248.604 184.169 251.667C187.221 254.729 190.901 256.26 195.211 256.26C200.033 256.26 203.93 254.434 206.908 250.779L218.758 257.959C216.04 261.717 212.628 264.662 208.524 266.797C204.42 268.931 199.983 270 195.211 270C187.104 270 180.208 267.132 174.512 261.393C168.819 255.654 165.971 248.719 165.971 240.587C165.971 232.456 168.819 225.611 174.512 219.896Z" fill="#06456B"/>
<path d="M225.835 212.408H239.147V234.256H257.69V212.408H271.003V268.767H257.69V247.613H239.147V268.767H225.835V212.408Z" fill="#06456B"/>
</g>
<defs>
<clipPath id="clip0_1_2385">
<rect width="271" height="270" fill="white"/>
</clipPath>
</defs>
</svg>
