<svg width="21" height="21" viewBox="0 0 21 21" fill="none" xmlns="http://www.w3.org/2000/svg">
<path d="M13.4915 10.8333V14.225C13.4915 14.525 13.4582 14.8083 13.3832 15.0667C13.0748 16.2917 12.0582 17.0583 10.6582 17.0583H8.3915L5.87484 18.7333C5.49984 18.9917 4.99984 18.7167 4.99984 18.2667V17.0583C4.14984 17.0583 3.4415 16.775 2.94984 16.2833C2.44984 15.7833 2.1665 15.075 2.1665 14.225V10.8333C2.1665 9.25 3.14984 8.15833 4.6665 8.01667C4.77484 8.00833 4.88317 8 4.99984 8H10.6582C12.3582 8 13.4915 9.13333 13.4915 10.8333Z" fill="#19446A"/>
<path d="M15.2915 13.5C16.3498 13.5 17.2415 13.15 17.8582 12.525C18.4832 11.9083 18.8332 11.0166 18.8332 9.95829V5.70829C18.8332 3.74996 17.2498 2.16663 15.2915 2.16663H8.20817C6.24984 2.16663 4.6665 3.74996 4.6665 5.70829V6.33329C4.6665 6.56663 4.84984 6.74996 5.08317 6.74996H10.6582C12.9165 6.74996 14.7415 8.57496 14.7415 10.8333V13.0833C14.7415 13.3166 14.9248 13.5 15.1582 13.5H15.2915Z" fill="#19446A"/>
</svg>
