<svg width="21" height="21" viewBox="0 0 21 21" fill="none" xmlns="http://www.w3.org/2000/svg">
<path d="M14.5833 16.3417C14.325 16.3417 14.0666 16.2667 13.8416 16.1167L13.0416 15.5917C12.8166 15.4417 12.7083 15.1584 12.7833 14.9001C12.8416 14.7084 12.8666 14.4834 12.8666 14.2334V10.8417C12.8666 9.48335 12.0166 8.63338 10.6583 8.63338H4.99995C4.89995 8.63338 4.80829 8.64173 4.71662 8.65007C4.54162 8.6584 4.37496 8.60006 4.24163 8.48339C4.1083 8.36672 4.04163 8.20007 4.04163 8.02507V5.71672C4.04163 3.26672 5.75829 1.55005 8.20829 1.55005H15.2916C17.7416 1.55005 19.4583 3.26672 19.4583 5.71672V9.9667C19.4583 11.175 19.05 12.2417 18.3 12.975C17.7 13.5834 16.8666 13.975 15.9166 14.0917V15.0167C15.9166 15.5167 15.6416 15.9667 15.2083 16.2001C15.0083 16.2917 14.7916 16.3417 14.5833 16.3417ZM14.0833 14.775L14.625 15.0834C14.675 15.0584 14.675 15.0167 14.675 15.0084V13.5C14.675 13.1584 14.9583 12.875 15.3 12.875C16.175 12.875 16.9166 12.6001 17.425 12.0834C17.95 11.5667 18.2166 10.8334 18.2166 9.95835V5.70837C18.2166 3.93337 17.075 2.79171 15.3 2.79171H8.21662C6.44162 2.79171 5.29995 3.93337 5.29995 5.70837V7.37504H10.6666C12.7 7.37504 14.125 8.80006 14.125 10.8334V14.225C14.1166 14.4167 14.1083 14.6 14.0833 14.775Z" fill="#484C52"/>
<path d="M5.5583 19.4583C5.37497 19.4583 5.1833 19.4167 5.0083 19.325C4.61663 19.1167 4.37495 18.7167 4.37495 18.2667V17.6333C3.64162 17.5167 2.99163 17.2083 2.5083 16.725C1.87496 16.0916 1.54163 15.225 1.54163 14.225V10.8334C1.54163 8.95002 2.77495 7.56668 4.60829 7.39168C4.74162 7.38335 4.86662 7.375 4.99995 7.375H10.6583C12.6916 7.375 14.1166 8.80002 14.1166 10.8334V14.225C14.1166 14.5916 14.075 14.9333 13.9833 15.2417C13.6083 16.7417 12.3333 17.6833 10.6583 17.6833H8.58329L6.22496 19.25C6.02496 19.3917 5.79163 19.4583 5.5583 19.4583ZM4.99995 8.625C4.89995 8.625 4.80829 8.63335 4.71662 8.64168C3.51662 8.75002 2.79163 9.57502 2.79163 10.8334V14.225C2.79163 14.8916 2.99996 15.45 3.39163 15.8416C3.77496 16.225 4.33329 16.4333 4.99995 16.4333C5.34162 16.4333 5.62495 16.7167 5.62495 17.0583V18.15L8.04163 16.5417C8.14163 16.475 8.26663 16.4333 8.39163 16.4333H10.6583C11.7583 16.4333 12.5333 15.8833 12.775 14.9167C12.8333 14.7083 12.8666 14.475 12.8666 14.225V10.8334C12.8666 9.47502 12.0166 8.625 10.6583 8.625H4.99995Z" fill="#484C52"/>
</svg>
