<svg width="24" height="25" viewBox="0 0 24 25" fill="none" xmlns="http://www.w3.org/2000/svg">
<path d="M19.3399 14.7461L18.3399 13.0861C18.1299 12.7161 17.9399 12.0161 17.9399 11.6061V9.0761C17.9399 6.7261 16.5599 4.6961 14.5699 3.7461C14.0499 2.8261 13.0899 2.2561 11.9899 2.2561C10.8999 2.2561 9.91994 2.8461 9.39994 3.7761C7.44994 4.7461 6.09994 6.7561 6.09994 9.0761V11.6061C6.09994 12.0161 5.90994 12.7161 5.69994 13.0761L4.68994 14.7461C4.28994 15.4161 4.19994 16.1561 4.44994 16.8361C4.68994 17.5061 5.25994 18.0261 5.99994 18.2761C7.93994 18.9361 9.97994 19.2561 12.0199 19.2561C14.0599 19.2561 16.0999 18.9361 18.0399 18.2861C18.7399 18.0561 19.2799 17.5261 19.5399 16.8361C19.7999 16.1461 19.7299 15.3861 19.3399 14.7461Z" fill="white"/>
<path d="M14.8301 20.2661C14.4101 21.4261 13.3001 22.2561 12.0001 22.2561C11.2101 22.2561 10.4301 21.9361 9.88005 21.3661C9.56005 21.0661 9.32005 20.6661 9.18005 20.2561C9.31005 20.2761 9.44005 20.2861 9.58005 20.3061C9.81005 20.3361 10.0501 20.3661 10.2901 20.3861C10.8601 20.4361 11.4401 20.4661 12.0201 20.4661C12.5901 20.4661 13.1601 20.4361 13.7201 20.3861C13.9301 20.3661 14.1401 20.3561 14.3401 20.3261C14.5001 20.3061 14.6601 20.2861 14.8301 20.2661Z" fill="white"/>
</svg>
