<svg width="20" height="21" viewBox="0 0 20 21" fill="none" xmlns="http://www.w3.org/2000/svg">
<g clip-path="url(#clip0_560_1493)">
<path d="M9.97599 0.5C15.5128 0.5 20.0001 4.96798 20.0001 10.5144C20.0001 16.0609 15.5128 20.5289 9.90858 20.5C4.4199 20.4615 0.0193204 16.0224 6.18923e-05 10.5337C-0.0191967 4.98724 4.45841 0.5 9.97599 0.5ZM9.95673 19.0749C14.704 19.0941 18.546 15.2713 18.5749 10.5241C18.5942 5.83462 14.7617 1.95402 10.0915 1.93476C5.32505 1.9155 1.44445 5.72869 1.43482 10.447C1.42519 15.2135 5.22876 19.0652 9.96636 19.0845L9.95673 19.0749Z" fill="#484C52"/>
<path d="M15.2625 5.96948C15.2625 6.08503 15.2144 6.21022 15.1566 6.32577C14.1744 8.29977 13.1826 10.2738 12.2004 12.2478C12.1041 12.4404 11.9597 12.5848 11.7671 12.6811C9.78348 13.6729 7.80948 14.6647 5.82585 15.6565C5.49845 15.8202 5.17106 15.7721 4.93996 15.541C4.71848 15.3099 4.67034 15.0017 4.83403 14.6743C5.81622 12.7003 6.80804 10.7263 7.79985 8.75234C7.90577 8.55013 8.05021 8.40569 8.25243 8.3094C10.2361 7.31758 12.2101 6.32577 14.1841 5.33395C14.704 5.07396 15.2625 5.39173 15.2529 5.95985L15.2625 5.96948ZM12.9226 7.59683C12.8552 7.60646 12.836 7.60646 12.8167 7.61609C11.5842 8.23236 10.342 8.84864 9.10943 9.46491C9.02277 9.51306 8.97462 9.58046 8.9361 9.6575C8.33909 10.8515 7.74207 12.0456 7.14506 13.2492C7.1258 13.2974 7.0584 13.3455 7.11617 13.4129C7.19321 13.3744 7.27987 13.3359 7.3569 13.2974C8.29094 12.8255 9.21535 12.3248 10.1687 11.9107C10.756 11.6508 11.1797 11.2945 11.3819 10.6878C11.4205 10.5723 11.4879 10.476 11.536 10.3701C11.9886 9.46491 12.4412 8.55013 12.913 7.60646L12.9226 7.59683Z" fill="#484C52"/>
</g>
<defs>
<clipPath id="clip0_560_1493">
<rect width="20" height="20" fill="white" transform="translate(0 0.5)"/>
</clipPath>
</defs>
</svg>
