<svg width="20" height="21" viewBox="0 0 20 21" fill="none" xmlns="http://www.w3.org/2000/svg">
<path d="M10.0003 2.16663C7.81699 2.16663 6.04199 3.94163 6.04199 6.12496C6.04199 8.26663 7.71699 9.99996 9.90033 10.075C9.96699 10.0666 10.0337 10.0666 10.0837 10.075C10.1003 10.075 10.1087 10.075 10.1253 10.075C10.1337 10.075 10.1337 10.075 10.142 10.075C12.2753 9.99996 13.9503 8.26663 13.9587 6.12496C13.9587 3.94163 12.1837 2.16663 10.0003 2.16663Z" fill="#19446A"/>
<path d="M14.2338 12.2917C11.9088 10.7417 8.11712 10.7417 5.77546 12.2917C4.71712 13 4.13379 13.9583 4.13379 14.9833C4.13379 16.0083 4.71712 16.9583 5.76712 17.6583C6.93379 18.4417 8.46712 18.8333 10.0005 18.8333C11.5338 18.8333 13.0671 18.4417 14.2338 17.6583C15.2838 16.95 15.8671 16 15.8671 14.9667C15.8588 13.9417 15.2838 12.9917 14.2338 12.2917Z" fill="#19446A"/>
</svg>
