<svg width="20" height="21" viewBox="0 0 20 21" fill="none" xmlns="http://www.w3.org/2000/svg">
<path d="M10.1334 9.55829C10.05 9.54996 9.95005 9.54996 9.85838 9.55829C7.87505 9.49163 6.30005 7.86663 6.30005 5.86663C6.30005 3.82496 7.95005 2.16663 10 2.16663C12.0417 2.16663 13.7001 3.82496 13.7001 5.86663C13.6917 7.86663 12.1167 9.49163 10.1334 9.55829Z" stroke="#484C52" stroke-width="1.5" stroke-linecap="round" stroke-linejoin="round"/>
<path d="M5.9666 12.6334C3.94993 13.9834 3.94993 16.1834 5.9666 17.525C8.25827 19.0584 12.0166 19.0584 14.3083 17.525C16.3249 16.175 16.3249 13.975 14.3083 12.6334C12.0249 11.1084 8.2666 11.1084 5.9666 12.6334Z" stroke="#484C52" stroke-width="1.5" stroke-linecap="round" stroke-linejoin="round"/>
</svg>
