<svg width="21" height="21" viewBox="0 0 21 21" fill="none" xmlns="http://www.w3.org/2000/svg">
<path d="M15.1834 8.51672H10.8083C10.4667 8.51672 10.1833 8.23339 10.1833 7.89172C10.1833 7.55006 10.4667 7.26672 10.8083 7.26672H15.1834C15.525 7.26672 15.8084 7.55006 15.8084 7.89172C15.8084 8.23339 15.5334 8.51672 15.1834 8.51672Z" fill="#484C52"/>
<path d="M6.43334 9.15002C6.27501 9.15002 6.11667 9.09168 5.99167 8.96668L5.36667 8.34168C5.12501 8.10002 5.12501 7.70002 5.36667 7.45835C5.60834 7.21668 6.00834 7.21668 6.25001 7.45835L6.43334 7.64168L7.86667 6.20835C8.10834 5.96668 8.50834 5.96668 8.75001 6.20835C8.99167 6.45002 8.99167 6.85002 8.75001 7.09168L6.87501 8.96668C6.75834 9.08335 6.60001 9.15002 6.43334 9.15002Z" fill="#484C52"/>
<path d="M15.1834 14.35H10.8083C10.4667 14.35 10.1833 14.0666 10.1833 13.725C10.1833 13.3833 10.4667 13.1 10.8083 13.1H15.1834C15.525 13.1 15.8084 13.3833 15.8084 13.725C15.8084 14.0666 15.5334 14.35 15.1834 14.35Z" fill="#484C52"/>
<path d="M6.43334 14.9834C6.27501 14.9834 6.11667 14.9251 5.99167 14.8001L5.36667 14.1751C5.12501 13.9334 5.12501 13.5334 5.36667 13.2917C5.60834 13.0501 6.00834 13.0501 6.25001 13.2917L6.43334 13.4751L7.86667 12.0417C8.10834 11.8001 8.50834 11.8001 8.75001 12.0417C8.99167 12.2834 8.99167 12.6834 8.75001 12.9251L6.87501 14.8001C6.75834 14.9167 6.60001 14.9834 6.43334 14.9834Z" fill="#484C52"/>
<path d="M13 19.4583H7.99996C3.47496 19.4583 1.54163 17.525 1.54163 13V7.99996C1.54163 3.47496 3.47496 1.54163 7.99996 1.54163H13C17.525 1.54163 19.4583 3.47496 19.4583 7.99996V13C19.4583 17.525 17.525 19.4583 13 19.4583ZM7.99996 2.79163C4.15829 2.79163 2.79163 4.15829 2.79163 7.99996V13C2.79163 16.8416 4.15829 18.2083 7.99996 18.2083H13C16.8416 18.2083 18.2083 16.8416 18.2083 13V7.99996C18.2083 4.15829 16.8416 2.79163 13 2.79163H7.99996Z" fill="#484C52"/>
</svg>
