<svg width="21" height="21" viewBox="0 0 21 21" fill="none" xmlns="http://www.w3.org/2000/svg">
<path d="M13.9915 2.16663H7.00817C3.97484 2.16663 2.1665 3.97496 2.1665 7.00829V13.9916C2.1665 17.025 3.97484 18.8333 7.00817 18.8333H13.9915C17.0248 18.8333 18.8332 17.025 18.8332 13.9916V7.00829C18.8332 3.97496 17.0248 2.16663 13.9915 2.16663ZM8.80817 12.9166L6.93317 14.7916C6.80817 14.9166 6.64984 14.975 6.4915 14.975C6.33317 14.975 6.1665 14.9166 6.04984 14.7916L5.42484 14.1666C5.17484 13.925 5.17484 13.525 5.42484 13.2833C5.6665 13.0416 6.05817 13.0416 6.30817 13.2833L6.4915 13.4666L7.92484 12.0333C8.1665 11.7916 8.55817 11.7916 8.80817 12.0333C9.04984 12.275 9.04984 12.675 8.80817 12.9166ZM8.80817 7.08329L6.93317 8.95829C6.80817 9.08329 6.64984 9.14163 6.4915 9.14163C6.33317 9.14163 6.1665 9.08329 6.04984 8.95829L5.42484 8.33329C5.17484 8.09163 5.17484 7.69163 5.42484 7.44996C5.6665 7.20829 6.05817 7.20829 6.30817 7.44996L6.4915 7.63329L7.92484 6.19996C8.1665 5.95829 8.55817 5.95829 8.80817 6.19996C9.04984 6.44163 9.04984 6.84163 8.80817 7.08329ZM15.1332 14.35H10.7582C10.4165 14.35 10.1332 14.0666 10.1332 13.725C10.1332 13.3833 10.4165 13.1 10.7582 13.1H15.1332C15.4832 13.1 15.7582 13.3833 15.7582 13.725C15.7582 14.0666 15.4832 14.35 15.1332 14.35ZM15.1332 8.51663H10.7582C10.4165 8.51663 10.1332 8.23329 10.1332 7.89163C10.1332 7.54996 10.4165 7.26663 10.7582 7.26663H15.1332C15.4832 7.26663 15.7582 7.54996 15.7582 7.89163C15.7582 8.23329 15.4832 8.51663 15.1332 8.51663Z" fill="#19446A"/>
</svg>
